<?xml version="1.0" encoding="UTF-8" standalone="no"?>
<!-- Created with Inkscape (http://www.inkscape.org/) -->

<svg
   xmlns:osb="http://www.openswatchbook.org/uri/2009/osb"
   xmlns:dc="http://purl.org/dc/elements/1.1/"
   xmlns:cc="http://creativecommons.org/ns#"
   xmlns:rdf="http://www.w3.org/1999/02/22-rdf-syntax-ns#"
   xmlns:svg="http://www.w3.org/2000/svg"
   xmlns="http://www.w3.org/2000/svg"
   xmlns:sodipodi="http://sodipodi.sourceforge.net/DTD/sodipodi-0.dtd"
   xmlns:inkscape="http://www.inkscape.org/namespaces/inkscape"
   width="800"
   height="450"
   id="svg2"
   version="1.1"
   inkscape:version="0.48.4 r9939"
   sodipodi:docname="scene.svg">
  <defs
     id="defs4">
    <linearGradient
       id="linearGradient3943"
       osb:paint="solid">
      <stop
         style="stop-color:#000000;stop-opacity:1;"
         offset="0"
         id="stop3945" />
    </linearGradient>
  </defs>
  <sodipodi:namedview
     id="base"
     pagecolor="#ffffff"
     bordercolor="#666666"
     borderopacity="1.0"
     inkscape:pageopacity="0.0"
     inkscape:pageshadow="2"
     inkscape:zoom="2.8284271"
     inkscape:cx="175.16002"
     inkscape:cy="268.25619"
     inkscape:document-units="px"
     inkscape:current-layer="layer1"
     showgrid="true"
     inkscape:window-width="1920"
     inkscape:window-height="1017"
     inkscape:window-x="-8"
     inkscape:window-y="-8"
     inkscape:window-maximized="1">
    <inkscape:grid
       type="xygrid"
       id="grid2985"
       empspacing="5"
       visible="true"
       enabled="true"
       snapvisiblegridlinesonly="true" />
  </sodipodi:namedview>
  <metadata
     id="metadata7">
    <rdf:RDF>
      <cc:Work
         rdf:about="">
        <dc:format>image/svg+xml</dc:format>
        <dc:type
           rdf:resource="http://purl.org/dc/dcmitype/StillImage" />
        <dc:title></dc:title>
      </cc:Work>
    </rdf:RDF>
  </metadata>
  <g
     inkscape:groupmode="layer"
     id="layer2"
     inkscape:label="background"
     style="display:inline"
     sodipodi:insensitive="true">
    <g
       id="g4204">
      <rect
         y="0"
         x="0"
         height="450"
         width="800"
         id="rect4182"
         style="color:#000000;fill:#cccccc;fill-opacity:1;fill-rule:nonzero;stroke:none;stroke-width:1;marker:none;visibility:visible;display:inline;overflow:visible;enable-background:accumulate" />
      <rect
         y="370"
         x="0"
         height="80"
         width="800"
         id="rect4184"
         style="color:#000000;fill:#e6e6e6;fill-opacity:1;fill-rule:nonzero;stroke:none;stroke-width:1;marker:none;visibility:visible;display:inline;overflow:visible;enable-background:accumulate" />
      <rect
         y="0"
         x="0"
         height="80"
         width="800"
         id="rect4184-4"
         style="color:#000000;fill:#b3b3b3;fill-opacity:1;fill-rule:nonzero;stroke:none;stroke-width:1;marker:none;visibility:visible;display:inline;overflow:visible;enable-background:accumulate" />
    </g>
  </g>
  <g
     inkscape:label="devices"
     inkscape:groupmode="layer"
     id="layer1"
     transform="translate(0,-602.36218)"
     style="display:inline">
    <path
       inkscape:connector-curvature="0"
       id="path3910"
       d="m 145,927.36218 0,-130 25,0 z"
       style="fill:#ffffff;fill-opacity:1;stroke:none" />
    <rect
       style="color:#000000;fill:#e6e6e6;stroke:none;stroke-width:1;marker:none;visibility:visible;display:inline;overflow:visible;enable-background:accumulate"
       id="rect3902"
       width="90"
       height="140"
       x="140"
       y="792.36218" />
    <path
       style="fill:#f2f2f2;fill-opacity:1;stroke:none"
       d="m 140,822.36218 0,-30 80,0 z"
       id="path3908"
       inkscape:connector-curvature="0"
       sodipodi:nodetypes="cccc" />
    <path
       style="fill:#dadada;fill-opacity:1;stroke:none"
       d="m 230,902.36218 0,30 -80,0 z"
       id="path3908-1"
       inkscape:connector-curvature="0"
       sodipodi:nodetypes="cccc" />
    <path
       style="fill:#808080;fill-opacity:1;stroke:none"
       d="m 150,842.36218 0,20 70,0 0,-20 z"
       id="path2987"
       inkscape:connector-curvature="0" />
    <path
       style="fill:#b3b3b3;stroke:none"
       d="m 150,872.36218 0,10 10,0 0,-10 z"
       id="path2989"
       inkscape:connector-curvature="0" />
    <path
       style="fill:#b3b3b3;stroke:none"
       d="m 170,872.36218 0,10 10,0 0,-10 z"
       id="path2989-1"
       inkscape:connector-curvature="0" />
    <path
       style="fill:#b3b3b3;stroke:none"
       d="m 190,872.36218 0,10 10,0 0,-10 z"
       id="path2989-1-7"
       inkscape:connector-curvature="0" />
    <path
       style="fill:#b3b3b3;stroke:none"
       d="m 210,872.36218 0,10 10,0 0,-10 z"
       id="path2989-1-7-4"
       inkscape:connector-curvature="0" />
    <path
       style="fill:#b3b3b3;stroke:none"
       d="m 150,892.36218 0,10 10,0 0,-10 z"
       id="path2989-0"
       inkscape:connector-curvature="0" />
    <path
       style="fill:#b3b3b3;stroke:none"
       d="m 170,892.36218 0,10 10,0 0,-10 z"
       id="path2989-1-9"
       inkscape:connector-curvature="0" />
    <path
       style="fill:#b3b3b3;stroke:none"
       d="m 190,892.36218 0,10 10,0 0,-10 z"
       id="path2989-1-7-48"
       inkscape:connector-curvature="0" />
    <path
       style="fill:#b3b3b3;stroke:none"
       d="m 150,912.36218 0,10 10,0 0,-10 z"
       id="path2989-0-2"
       inkscape:connector-curvature="0" />
    <path
       style="fill:#b3b3b3;stroke:none"
       d="m 170,912.36218 0,10 10,0 0,-10 z"
       id="path2989-1-9-4"
       inkscape:connector-curvature="0" />
    <path
       style="fill:#b3b3b3;stroke:none"
       d="m 190,912.36218 0,10 10,0 0,-10 z"
       id="path2989-1-7-48-5"
       inkscape:connector-curvature="0" />
    <path
       style="fill:#b3b3b3;stroke:none"
       d="m 210,922.36218 0,-30 10,0 0,30 z"
       id="path3099"
       inkscape:connector-curvature="0" />
    <path
       style="fill:#999999;stroke:none"
       d="m 220,812.36218 0,20 -20,0 0,-5 15,0 0,-15"
       id="path3906"
       inkscape:connector-curvature="0" />
    <path
       style="fill:#b3b3b3;fill-opacity:1;stroke:none"
       d="m 200,822.36218 20,0 0,-20 -20,0 z"
       id="path4092"
       inkscape:connector-curvature="0" />
    <path
       sodipodi:type="arc"
       style="color:#000000;fill:#666666;stroke:none;stroke-width:1;marker:none;visibility:visible;display:inline;overflow:visible;enable-background:accumulate"
       id="path3132"
       sodipodi:cx="195"
       sodipodi:cy="175"
       sodipodi:rx="5"
       sodipodi:ry="5"
       d="m 200,175 a 5,5 0 1 1 -10,0 5,5 0 1 1 10,0 z"
       transform="translate(15,637.36218)" />
    <path
       style="fill:#999999;fill-opacity:1;stroke:none"
       d="m 150,842.36218 0,5 60,-5 z"
       id="path3937"
       inkscape:connector-curvature="0"
       sodipodi:nodetypes="cccc" />
    <path
       style="fill:#666666;fill-opacity:1;stroke:none"
       d="m 220,857.36218 0,5 -60,0 z"
       id="path3939"
       inkscape:connector-curvature="0" />
    <path
       style="fill:#cccccc;fill-opacity:1;stroke:none"
       d="m 150,877.36218 10,-5 -10,0 z"
       id="path3949"
       inkscape:connector-curvature="0" />
    <path
       style="fill:#999999;fill-opacity:1;stroke:none"
       d="m 150,882.36218 10,-5 0,5 z"
       id="path3951"
       inkscape:connector-curvature="0" />
    <path
       style="fill:#cccccc;fill-opacity:1;stroke:none"
       d="m 170,877.36218 10,-5 -10,0 z"
       id="path3949-5"
       inkscape:connector-curvature="0" />
    <path
       style="fill:#999999;fill-opacity:1;stroke:none"
       d="m 170,882.36218 10,-5 0,5 z"
       id="path3951-2"
       inkscape:connector-curvature="0" />
    <path
       style="fill:#cccccc;fill-opacity:1;stroke:none"
       d="m 190,877.36218 10,-5 -10,0 z"
       id="path3949-5-7"
       inkscape:connector-curvature="0" />
    <path
       style="fill:#999999;fill-opacity:1;stroke:none"
       d="m 190,882.36218 10,-5 0,5 z"
       id="path3951-2-6"
       inkscape:connector-curvature="0" />
    <path
       style="fill:#cccccc;fill-opacity:1;stroke:none"
       d="m 210,877.36218 10,-5 -10,0 z"
       id="path3949-5-7-1"
       inkscape:connector-curvature="0" />
    <path
       style="fill:#999999;fill-opacity:1;stroke:none"
       d="m 210,882.36218 10,-5 0,5 z"
       id="path3951-2-6-4"
       inkscape:connector-curvature="0" />
    <path
       style="fill:#cccccc;fill-opacity:1;stroke:none"
       d="m 150,897.36218 10,-5 -10,0 z"
       id="path3949-2"
       inkscape:connector-curvature="0" />
    <path
       style="fill:#999999;fill-opacity:1;stroke:none"
       d="m 150,902.36218 10,-5 0,5 z"
       id="path3951-3"
       inkscape:connector-curvature="0" />
    <path
       style="fill:#cccccc;fill-opacity:1;stroke:none"
       d="m 170,897.36218 10,-5 -10,0 z"
       id="path3949-5-2"
       inkscape:connector-curvature="0" />
    <path
       style="fill:#999999;fill-opacity:1;stroke:none"
       d="m 170,902.36218 10,-5 0,5 z"
       id="path3951-2-2"
       inkscape:connector-curvature="0" />
    <path
       style="fill:#cccccc;fill-opacity:1;stroke:none"
       d="m 190,897.36218 10,-5 -10,0 z"
       id="path3949-5-7-16"
       inkscape:connector-curvature="0" />
    <path
       style="fill:#999999;fill-opacity:1;stroke:none"
       d="m 190,902.36218 10,-5 0,5 z"
       id="path3951-2-6-8"
       inkscape:connector-curvature="0" />
    <path
       style="fill:#cccccc;fill-opacity:1;stroke:none"
       d="m 150,917.36218 10,-5 -10,0 z"
       id="path3949-2-5"
       inkscape:connector-curvature="0" />
    <path
       style="fill:#999999;fill-opacity:1;stroke:none"
       d="m 150,922.36218 10,-5 0,5 z"
       id="path3951-3-7"
       inkscape:connector-curvature="0" />
    <path
       style="fill:#cccccc;fill-opacity:1;stroke:none"
       d="m 170,917.36218 10,-5 -10,0 z"
       id="path3949-5-2-6"
       inkscape:connector-curvature="0" />
    <path
       style="fill:#999999;fill-opacity:1;stroke:none"
       d="m 170,922.36218 10,-5 0,5 z"
       id="path3951-2-2-1"
       inkscape:connector-curvature="0" />
    <path
       style="fill:#cccccc;fill-opacity:1;stroke:none"
       d="m 190,917.36218 10,-5 -10,0 z"
       id="path3949-5-7-16-8"
       inkscape:connector-curvature="0" />
    <path
       style="fill:#999999;fill-opacity:1;stroke:none"
       d="m 190,922.36218 10,-5 0,5 z"
       id="path3951-2-6-8-9"
       inkscape:connector-curvature="0" />
    <path
       style="fill:#cccccc;fill-opacity:1;stroke:none"
       d="m 210,897.36218 10,-5 -10,0 z"
       id="path4082"
       inkscape:connector-curvature="0" />
    <path
       style="fill:#999999;fill-opacity:1;stroke:none"
       d="m 210,922.36218 10,-5 0,5 z"
       id="path4084"
       inkscape:connector-curvature="0" />
    <path
       inkscape:connector-curvature="0"
       id="path4086"
       d="m 210,922.36218 10,-5 0,5 z"
       style="fill:#999999;fill-opacity:1;stroke:none" />
    <path
       style="fill:#cccccc;fill-opacity:1;stroke:none"
       d="m 200,807.36218 20,-5 -20,0 z"
       id="path4094"
       inkscape:connector-curvature="0" />
    <path
       style="fill:#999999;fill-opacity:1;stroke:none"
       d="m 200,822.36218 20,-5 0,5 z"
       id="path4096"
       inkscape:connector-curvature="0" />
    <rect
       style="color:#000000;fill:#e6e6e6;fill-opacity:1;fill-rule:nonzero;stroke:none;stroke-width:1;marker:none;visibility:visible;display:inline;overflow:visible;enable-background:accumulate"
       id="rect4449"
       width="70"
       height="70"
       x="100"
       y="100"
       transform="translate(0,602.36218)" />
    <path
       style="fill:#f2f2f2;fill-opacity:1;stroke:none;display:inline"
       d="m 100,722.36218 0,-20 60,0 z"
       id="path3908-3"
       inkscape:connector-curvature="0"
       sodipodi:nodetypes="cccc" />
    <path
       sodipodi:nodetypes="cccc"
       inkscape:connector-curvature="0"
       id="path4469"
       d="m 100,722.36218 0,-20 60,0 z"
       style="fill:#f2f2f2;fill-opacity:1;stroke:none;display:inline" />
    <path
       style="fill:#dadada;fill-opacity:1;stroke:none;display:inline"
       d="m 170,752.36218 0,20 -60,0 z"
       id="path3908-1-8"
       inkscape:connector-curvature="0"
       sodipodi:nodetypes="cccc" />
  </g>
  <g
     inkscape:groupmode="layer"
     id="layer3"
     inkscape:label="interactive"
     style="display:inline"
     sodipodi:insensitive="true">
    <path
       style="fill:#b3b3b3;stroke:none"
       d="m 150,215 0,-15 10,0 0,15"
       id="path3103"
       inkscape:connector-curvature="0" />
    <path
       style="fill:#808080;stroke:none"
       d="m 150,230 0,-15 10,0 0,15 z"
       id="path3101"
       inkscape:connector-curvature="0"
       sodipodi:nodetypes="ccccc" />
    <path
       style="fill:#cccccc;fill-opacity:1;stroke:none"
       d="m 150,205 0,-5 10,0 z"
       id="path4088"
       inkscape:connector-curvature="0" />
    <path
       style="fill:#666666;fill-opacity:1;stroke:none"
       d="m 150,230 10,0 0,-5 z"
       id="path4090"
       inkscape:connector-curvature="0" />
    <path
       style="fill:#b3b3b3;stroke:none"
       d="m 170,230 0,-15 10,0 0,15 z"
       id="path3101-7"
       inkscape:connector-curvature="0"
       sodipodi:nodetypes="ccccc" />
    <path
       style="fill:#808080;stroke:none"
       d="m 170,215 0,-15 10,0 0,15"
       id="path3103-2"
       inkscape:connector-curvature="0" />
    <path
       style="fill:#999999;fill-opacity:1;stroke:none"
       d="m 170,205 0,-5 10,0 z"
       id="path4088-9"
       inkscape:connector-curvature="0" />
    <path
       style="fill:#999999;fill-opacity:1;stroke:none"
       d="m 170,230 10,0 0,-5 z"
       id="path4090-5"
       inkscape:connector-curvature="0" />
  </g>
</svg>
